<?xml version="1.0" encoding="utf-8"?>
<!-- Generator: Adobe Illustrator 16.0.2, SVG Export Plug-In . SVG Version: 6.00 Build 0)  -->
<!DOCTYPE svg PUBLIC "-//W3C//DTD SVG 1.1//EN" "http://www.w3.org/Graphics/SVG/1.1/DTD/svg11.dtd">
<svg version="1.1" id="Layer_1" xmlns="http://www.w3.org/2000/svg" xmlns:xlink="http://www.w3.org/1999/xlink" x="0px" y="0px"
	 width="420px" height="420px" viewBox="90 90 420 420" enable-background="new 90 90 420 420" xml:space="preserve">
<path fill="#FFFFFF" d="M419.559,119.382l-63.012,204.088l-15.287-48.882l57.629-155.207h-88.939l-8.563,27.725l-8.67-27.725H201.11
	l59.883,158.56l-14.057,45.527l-63.83-204.086H91.5l107.104,283.594h94.982l7.252-19.531l7.375,19.531h94.984L508.5,119.382H419.559
	z M312.904,291.572l-1.445,13.504l-11.46-7.289l-11.459,7.289l-1.448-13.504l-12.842-4.416l9.655-9.549l-4.556-12.793l13.489,1.595
	l7.16-11.54l7.164,11.54l13.486-1.595l-4.557,12.793l9.656,9.549L312.904,291.572z"/>
<g>
	<path fill="#FFFFFF" d="M217.882,480.492c-2.854,0-5.572,0-8.29,0c-3.349,0-6.699-0.033-10.047,0.025
		c-0.86,0.014-1.175-0.256-1.425-1.063c-4.22-13.566-8.477-27.117-12.726-40.678c-0.102-0.322-0.217-0.645-0.395-1.174
		c-0.188,0.439-0.328,0.697-0.411,0.971c-4.143,13.557-8.291,27.105-12.395,40.672c-0.29,0.963-0.679,1.285-1.701,1.271
		c-5.441-0.057-10.885-0.025-16.328-0.025c-0.382,0-0.763,0-1.285,0c0.677-1.84,1.313-3.594,1.963-5.344
		c6.622-17.824,13.253-35.645,19.85-53.477c0.319-0.863,0.715-1.131,1.637-1.125c5.965,0.051,11.933,0.041,17.898,0.01
		c0.803-0.006,1.199,0.18,1.505,0.996c7.221,19.27,14.478,38.531,21.728,57.789C217.591,479.693,217.716,480.043,217.882,480.492z"
		/>
	<path fill="#FFFFFF" d="M103.699,420.574c4.912,0,9.654,0,14.396,0c1.36,0,2.724,0.047,4.081-0.02
		c0.729-0.031,1.017,0.221,1.228,0.902c2.066,6.688,4.168,13.365,6.264,20.043c2.167,6.91,4.336,13.822,6.505,20.73
		c0.102,0.326,0.224,0.645,0.42,1.215c0.19-0.51,0.317-0.797,0.409-1.096c4.191-13.574,8.388-27.145,12.55-40.727
		c0.246-0.805,0.56-1.08,1.423-1.072c5.512,0.045,11.025,0.023,16.536,0.023c0.345,0,0.691,0,1.194,0
		c-0.129,0.424-0.208,0.742-0.322,1.049c-7.163,19.291-14.335,38.58-21.475,57.881c-0.289,0.783-0.629,1.051-1.476,1.045
		c-6.036-0.041-12.071-0.035-18.107-0.006c-0.74,0.004-1.083-0.213-1.35-0.922c-7.309-19.387-14.644-38.762-21.973-58.139
		C103.907,421.229,103.829,420.965,103.699,420.574z"/>
	<path fill="#FFFFFF" d="M447.553,480.527c-0.445,0-0.785,0-1.127,0c-5.723,0-11.445-0.018-17.168,0.02
		c-0.838,0.006-1.186-0.219-1.443-1.045c-4.217-13.568-8.477-27.125-12.727-40.686c-0.1-0.32-0.217-0.639-0.404-1.186
		c-0.195,0.506-0.33,0.803-0.428,1.111c-4.141,13.555-8.289,27.115-12.402,40.68c-0.252,0.834-0.592,1.139-1.498,1.131
		c-5.514-0.051-11.029-0.023-16.541-0.023c-0.346,0-0.695,0-1.16,0c0.098-0.357,0.156-0.643,0.254-0.912
		c7.189-19.359,14.391-38.719,21.563-58.086c0.277-0.748,0.625-0.982,1.416-0.977c6.072,0.037,12.145,0.035,18.215,0.004
		c0.719-0.006,1.014,0.223,1.262,0.885c7.256,19.338,14.535,38.668,21.811,57.998C447.293,479.76,447.398,480.084,447.553,480.527z"
		/>
	<path fill="#FFFFFF" d="M496.301,420.656c-1.883,5.064-3.732,10.02-5.574,14.977c-5.393,14.527-10.795,29.055-16.152,43.596
		c-0.357,0.971-0.768,1.305-1.828,1.295c-5.963-0.063-11.932-0.043-17.898-0.016c-0.705,0.006-1.016-0.197-1.271-0.873
		c-7.285-19.324-14.6-38.637-21.908-57.951c-0.121-0.316-0.211-0.646-0.363-1.109c0.471,0,0.809,0,1.146,0
		c5.723,0,11.445,0.023,17.168-0.027c0.877-0.004,1.189,0.299,1.434,1.078c4.25,13.633,8.525,27.256,12.801,40.881
		c0.078,0.258,0.184,0.512,0.355,0.971c0.896-2.883,1.73-5.572,2.564-8.262c3.473-11.246,6.949-22.492,10.412-33.742
		c0.164-0.535,0.277-0.918,0.996-0.914c5.898,0.029,11.795,0.02,17.693,0.023C495.975,420.582,496.078,420.617,496.301,420.656z"/>
	<path fill="#FFFFFF" d="M325.6,466.986c0,4.58,0,9.074,0,13.631c-16.842,0-33.64,0-50.515,0c0-4.512,0-9.029,0-13.631
		C291.878,466.986,308.701,466.986,325.6,466.986z"/>
	<path fill="#FFFFFF" d="M324.717,433.531c-16.303,0-32.52,0-48.802,0c0-4.346,0-8.652,0-13.035c16.233,0,32.476,0,48.802,0
		C324.717,424.791,324.717,429.123,324.717,433.531z"/>
	<path fill="#FFFFFF" d="M282.843,442.861c11.766,0,23.444,0,35.19,0c0,4.068,0,8.096,0,12.199c-11.697,0-23.401,0-35.19,0
		C282.843,451.043,282.843,446.992,282.843,442.861z"/>
	<path fill="#FFFFFF" d="M271.57,431.941c-1.484-4.842-4.687-8.145-9.466-9.881c-2.682-0.975-5.465-1.432-8.304-1.441
		c-10.292-0.035-20.583-0.031-30.876-0.045c-0.372,0-0.744,0-1.158,0c0,20.033,0,39.936,0,59.863c6.21,0,12.357,0,18.59,0
		c0-7.406,0-14.725,0-22.143c3.604,0,7.121,0.078,10.633-0.025c2.257-0.064,4.539-0.219,6.753-0.637
		c6.957-1.311,11.942-5.057,13.957-12.076C272.999,441.033,272.952,436.439,271.57,431.941z M250.29,445.344
		c-1.048,0.342-2.163,0.586-3.261,0.66c-1.946,0.125-3.901,0.088-5.853,0.111c-0.236,0.006-0.475-0.033-0.775-0.059
		c0-4.412,0-8.789,0-13.275c3.221,0.076,6.396-0.266,9.505,0.563c2.745,0.732,4.46,3.002,4.562,5.92
		C254.565,442.094,252.988,444.463,250.29,445.344z"/>
	<path fill="#FFFFFF" d="M377.398,420.574c-10.117,0-20.234-0.035-30.35,0.031c-2.041,0.014-4.117,0.242-6.113,0.668
		c-6.33,1.357-10.602,5.074-12.307,11.428c-1.027,3.832-1.057,7.736-0.203,11.602c1.252,5.703,4.496,9.898,9.99,11.994
		c2.41,0.918,5.033,1.529,7.6,1.723c4.232,0.318,8.5,0.188,12.756,0.242c0.406,0.006,0.816,0.002,1.35,0.002
		c0,7.453,0,14.795,0,22.178c6.246,0,12.369,0,18.555,0c0-19.947,0-39.844,0-59.865
		C378.213,420.574,377.805,420.574,377.398,420.574z M360.17,446.107c-3.219-0.072-6.398,0.268-9.504-0.563
		c-2.746-0.73-4.459-3-4.561-5.92c-0.102-2.83,1.479-5.195,4.174-6.078c1.051-0.342,2.166-0.586,3.264-0.658
		c1.945-0.127,3.9-0.088,5.852-0.115c0.24-0.002,0.475,0.035,0.775,0.059C360.17,437.248,360.17,441.623,360.17,446.107z"/>
</g>
</svg>
