<?xml version="1.0" encoding="utf-8"?>
<!-- Generator: Adobe Illustrator 16.0.2, SVG Export Plug-In . SVG Version: 6.00 Build 0)  -->
<!DOCTYPE svg PUBLIC "-//W3C//DTD SVG 1.1//EN" "http://www.w3.org/Graphics/SVG/1.1/DTD/svg11.dtd">
<svg version="1.1" id="Layer_1" xmlns="http://www.w3.org/2000/svg" xmlns:xlink="http://www.w3.org/1999/xlink" x="0px" y="0px"
	 width="400px" height="200px" viewBox="0 0 400 200" enable-background="new 0 0 400 200" xml:space="preserve">
<path d="M53.183,71.365h13.554l-22.589,56.172H33.53L10.941,71.365h13.554l14.382,35.766L53.183,71.365z"/>
<path d="M66.736,127.612L89.326,71.44h10.617l22.589,56.172h-13.553L94.672,91.846L80.29,127.612H66.736z"/>
<path d="M167.259,76.41c3.965,3.364,5.948,8.535,5.948,15.512c0,6.927-2.033,11.998-6.099,15.209
	c-4.017,3.214-10.191,4.819-18.523,4.819h-7.455v15.662h-12.575V71.44h19.878C157.067,71.44,163.343,73.097,167.259,76.41z
	 M158.072,98.548c1.506-1.657,2.259-4.116,2.259-7.379c0-3.263-0.979-5.572-2.937-6.928c-1.958-1.355-4.996-2.033-9.111-2.033
	h-7.153v18.899h8.433C153.73,101.107,156.566,100.255,158.072,98.548z"/>
<path d="M222,118.125v9.487h-42.77v-9.487H222z M220.869,71.365v9.563h-40.585v-9.563H220.869z M218.762,93.276v9.487h-36.369
	v-9.487H218.762z"/>
<path d="M252.795,71.44h19.879v56.172H260.1V111.95h-7.455c-8.384,0-14.558-1.605-18.523-4.819
	c-4.065-3.212-6.099-8.282-6.099-15.209c0-6.928,1.958-12.097,5.873-15.512C237.86,73.097,244.161,71.44,252.795,71.44z
	 M251.666,101.107h8.434V82.208h-7.153c-4.117,0-7.153,0.677-9.111,2.033s-2.937,3.665-2.937,6.928c0,3.264,0.753,5.722,2.259,7.379
	C244.663,100.255,247.499,101.107,251.666,101.107z"/>
<path d="M278.697,127.612l22.589-56.172h10.617l22.59,56.172h-13.554l-14.307-35.767l-14.382,35.767H278.697z"/>
<path d="M376.734,71.365h13.554l-22.589,56.172h-10.617l-22.589-56.172h13.553l14.383,35.766L376.734,71.365z"/>
</svg>
