<?xml version="1.0" standalone="no"?>
<!DOCTYPE svg PUBLIC "-//W3C//DTD SVG 20010904//EN"
 "http://www.w3.org/TR/2001/REC-SVG-20010904/DTD/svg10.dtd">
<svg version="1.0" xmlns="http://www.w3.org/2000/svg"
 width="600.000000pt" height="300.000000pt" viewBox="0 0 2000.000000 1000.000000"
 preserveAspectRatio="xMidYMid meet">
<metadata>
Created by potrace 1.11, written by Peter Selinger 2001-2013
</metadata>
<g transform="translate(0.000000,1000.000000) scale(0.100000,-0.100000)"
fill="#ffffff" stroke="none">
<path d="M619 6440 c-7 -5 50 -164 190 -530 16 -41 59 -156 96 -255 37 -99 70
-189 75 -200 4 -11 15 -40 25 -65 9 -25 22 -56 27 -70 6 -14 43 -113 83 -220
40 -107 78 -206 83 -220 6 -14 32 -81 57 -150 26 -69 58 -153 71 -187 13 -35
35 -91 48 -125 39 -102 80 -213 82 -218 1 -7 13 -38 29 -75 6 -16 54 -142 105
-280 51 -137 97 -254 101 -259 6 -7 826 -13 951 -7 10 1 21 15 28 39 6 20 15
46 20 57 12 30 35 89 36 95 0 3 5 16 11 30 6 14 22 59 37 100 15 41 29 82 33
90 3 8 7 20 8 25 2 6 14 39 29 75 14 36 62 164 106 285 109 296 150 406 160
430 5 11 48 126 95 255 47 129 89 242 92 250 3 8 7 17 8 20 4 13 18 47 25 65
8 20 245 662 281 760 9 28 38 103 62 168 26 68 40 117 33 118 -15 1 -822 1
-863 0 -27 -1 -32 -5 -38 -33 -4 -18 -18 -64 -30 -103 -25 -75 -96 -303 -100
-320 -1 -5 -5 -17 -8 -25 -3 -8 -76 -244 -162 -525 -86 -280 -173 -562 -193
-625 -20 -63 -37 -117 -37 -120 -1 -3 -8 -25 -15 -50 -7 -25 -14 -47 -15 -50
-1 -3 -14 -45 -29 -95 -15 -49 -29 -94 -31 -100 -4 -14 11 -60 -165 505 -29
91 -61 194 -73 230 -11 36 -22 70 -23 75 -1 6 -19 62 -39 125 -20 63 -37 120
-39 125 -4 18 -68 220 -73 235 -3 8 -7 20 -9 25 -3 12 -45 146 -108 345 -26
80 -48 152 -51 160 -12 46 -66 214 -70 218 -7 7 -905 8 -916 2z"/>
<path d="M4046 6440 c-31 -6 -8 49 -237 -570 -50 -135 -95 -254 -99 -265 -8
-17 -71 -189 -362 -975 -27 -74 -53 -144 -58 -155 -5 -11 -32 -83 -60 -160
-28 -77 -54 -147 -57 -155 -3 -8 -7 -19 -8 -25 -2 -5 -13 -35 -25 -65 -12 -30
-56 -147 -97 -260 -42 -113 -78 -211 -80 -218 -4 -10 87 -12 447 -10 l452 3
23 75 c13 41 40 129 60 195 20 66 57 185 81 265 54 175 86 279 118 385 13 44
40 132 60 195 96 312 119 389 131 430 7 25 35 117 63 206 28 89 58 189 67 223
10 33 21 61 25 61 5 0 166 -503 295 -920 13 -41 34 -111 48 -155 14 -44 48
-154 76 -245 29 -91 62 -199 76 -240 37 -117 122 -390 137 -437 l13 -43 462 0
c255 0 463 2 463 5 0 5 -70 193 -117 315 -14 35 -38 98 -53 140 -40 109 -190
510 -205 545 -6 17 -18 46 -25 65 -6 19 -16 44 -20 55 -5 11 -45 119 -90 240
-45 121 -85 229 -90 240 -5 11 -44 112 -86 225 -41 113 -91 243 -109 290 -18
47 -88 232 -155 413 -107 285 -126 327 -144 328 -97 4 -898 3 -920 -1z"/>
<path d="M6249 6440 c-3 -12 -5 -2846 -2 -2855 2 -6 155 -9 436 -8 237 1 437
2 442 2 7 1 10 182 10 527 0 345 3 528 10 530 5 2 168 5 360 7 193 3 364 7
380 11 17 4 55 11 85 17 494 99 749 472 698 1020 -8 80 -46 247 -59 255 -5 3
-9 13 -9 23 0 9 -22 53 -49 96 -122 198 -304 310 -585 359 -84 15 -289 19
-969 20 -411 1 -748 -1 -748 -4z m1316 -600 c163 -41 248 -154 241 -318 -4
-79 -23 -128 -73 -183 -78 -86 -161 -110 -405 -114 -104 -2 -189 -1 -189 3 -1
4 -2 147 -3 319 l-1 312 190 -3 c107 -2 212 -9 240 -16z"/>
<path d="M8830 6135 l0 -315 1170 0 1170 0 0 315 0 315 -1170 0 -1170 0 0
-315z"/>
<path d="M12207 6444 c-1 -1 -40 -5 -87 -8 -47 -4 -92 -8 -100 -10 -8 -1 -33
-6 -55 -10 -22 -4 -69 -17 -105 -28 -352 -111 -540 -391 -543 -808 -4 -500
255 -827 721 -909 34 -6 74 -14 89 -17 16 -3 182 -7 371 -9 189 -2 346 -6 350
-10 4 -4 7 -241 7 -528 l0 -522 445 0 445 0 0 1423 c0 849 -4 1426 -9 1430 -7
4 -1524 10 -1529 6z m648 -904 l0 -315 -165 1 c-293 1 -408 44 -478 178 -22
43 -26 64 -27 136 0 75 4 92 30 144 47 94 129 148 244 163 20 3 37 6 39 7 1 2
82 2 179 2 l178 -1 0 -315z"/>
<path d="M15004 6440 c-10 -4 -76 -169 -180 -450 -91 -245 -167 -452 -171
-460 -3 -8 -7 -19 -9 -25 -2 -9 -152 -412 -296 -795 -28 -74 -66 -175 -84
-225 -17 -49 -100 -272 -183 -495 -83 -223 -151 -407 -151 -410 0 -8 885 -4
898 4 7 4 12 12 12 18 0 6 18 67 40 137 50 157 280 911 285 931 2 8 42 141 90
295 47 154 98 318 112 365 14 47 36 119 49 159 13 41 27 90 30 108 7 36 19 36
27 1 3 -13 24 -81 47 -153 23 -71 43 -137 45 -145 4 -13 61 -196 179 -570 13
-41 45 -142 71 -225 26 -82 62 -197 80 -255 18 -58 53 -170 78 -250 25 -80 60
-190 77 -245 18 -55 33 -104 34 -110 11 -42 19 -65 25 -66 36 -4 914 -2 917 2
3 5 -176 495 -206 564 -5 11 -18 47 -30 80 -11 33 -25 69 -30 80 -9 19 -123
322 -435 1155 -148 397 -204 546 -270 715 -23 61 -55 145 -70 188 -25 69 -30
77 -54 78 -126 4 -915 3 -927 -1z"/>
<path d="M16262 6442 c-5 -1 40 -130 99 -285 59 -155 173 -457 254 -672 81
-214 157 -417 170 -450 13 -33 83 -217 155 -410 73 -192 159 -420 192 -505 33
-85 60 -159 61 -165 2 -5 5 -14 8 -20 3 -5 35 -88 70 -182 l64 -173 481 0 482
0 107 288 c59 158 145 391 192 517 46 127 88 239 93 250 13 31 35 89 36 95 0
3 4 12 7 20 6 13 85 227 298 805 39 105 74 199 79 210 5 11 63 166 129 345 92
250 116 326 106 330 -22 8 -874 4 -882 -4 -8 -8 -18 -37 -63 -186 -26 -89
-111 -364 -200 -650 -56 -180 -122 -395 -170 -550 -23 -74 -44 -144 -48 -155
-3 -11 -6 -22 -7 -25 0 -3 -17 -57 -37 -120 -20 -63 -53 -168 -73 -233 -20
-65 -39 -117 -41 -114 -2 2 -45 134 -95 293 -50 159 -129 411 -176 559 -46
149 -86 275 -87 280 -3 14 -74 240 -96 305 -10 30 -35 109 -55 175 -20 66 -53
170 -72 230 -19 61 -39 126 -45 145 -6 19 -14 39 -19 44 -7 8 -895 16 -917 8z"/>
<path d="M9160 5085 l0 -295 845 0 845 0 0 295 0 295 -845 0 -845 0 0 -295z"/>
<path d="M8790 3900 l0 -330 1210 0 1210 0 0 330 0 330 -1210 0 -1210 0 0
-330z"/>
</g>
</svg>
